PathFileType        4      (X/Y/Z)      C:\Users\pc\Desktop\IMUTRC\Sujet_06\Sujet_06_velo_80.trc         
DataRate	CameraRate	NumFrames	NumMarkers	Units	OrigDataRate	OrigDataStartFrame	OrigNumFrames
60.0	60.0	4	64	mm	60.0	712	948
Frame#	Time	pHipOrigin			pRightASI			pLeftASI			pRightCSI			pLeftCSI			pRightIschialTub			pLeftIschialTub			pSacrum			pL5SpinalProcess			pL3SpinalProcess			pT12SpinalProcess			pIJ			pT4SpinalProcess			pT8SpinalProcess			pPX			pC7SpinalProcess			pTopOfHead			pRightAuricularis			pLeftAuricularis			pBackOfHead			pRightAcromion			pLeftAcromion			pRightArmLatEpicondyle			pRightArmMedEpicondyle			pLeftArmLatEpicondyle			pLeftArmMedEpicondyle			pRightUlnarStyloid			pRightRadialStyloid			pRightOlecranon			pLeftUlnarStyloid			pLeftRadialStyloid			pLeftOlecranon			pRightTopOfHand			pRightPinky			pRightBallHand			pLeftTopOfHand			pLeftPinky			pLeftBallHand			pRightGreaterTrochanter			pRightKneeLatEpicondyle			pRightKneeMedEpicondyle			pRightPatella			pLeftGreaterTrochanter			pLeftKneeLatEpicondyle			pLeftKneeMedEpicondyle			pLeftPatella			pRightTibialTub			pRightLatMalleolus			pRightMedMalleolus			pLeftTibialTub			pLeftLatMalleolus			pLeftMedMalleolus			pRightHeelFoot			pRightFirstMetatarsal			pRightFifthMetatarsal			pRightPivotFoot			pRightHeelCenter			pRightToe			pLeftHeelFoot			pLeftFirstMetatarsal			pLeftFifthMetatarsal			pLeftPivotFoot			pLeftHeelCenter			pLeftToe			
		X1	Y1	Z1	X2	Y2	Z2	X3	Y3	Z3	X4	Y4	Z4	X5	Y5	Z5	X6	Y6	Z6	X7	Y7	Z7	X8	Y8	Z8	X9	Y9	Z9	X10	Y10	Z10	X11	Y11	Z11	X12	Y12	Z12	X13	Y13	Z13	X14	Y14	Z14	X15	Y15	Z15	X16	Y16	Z16	X17	Y17	Z17	X18	Y18	Z18	X19	Y19	Z19	X20	Y20	Z20	X21	Y21	Z21	X22	Y22	Z22	X23	Y23	Z23	X24	Y24	Z24	X25	Y25	Z25	X26	Y26	Z26	X27	Y27	Z27	X28	Y28	Z28	X29	Y29	Z29	X30	Y30	Z30	X31	Y31	Z31	X32	Y32	Z32	X33	Y33	Z33	X34	Y34	Z34	X35	Y35	Z35	X36	Y36	Z36	X37	Y37	Z37	X38	Y38	Z38	X39	Y39	Z39	X40	Y40	Z40	X41	Y41	Z41	X42	Y42	Z42	X43	Y43	Z43	X44	Y44	Z44	X45	Y45	Z45	X46	Y46	Z46	X47	Y47	Z47	X48	Y48	Z48	X49	Y49	Z49	X50	Y50	Z50	X51	Y51	Z51	X52	Y52	Z52	X53	Y53	Z53	X54	Y54	Z54	X55	Y55	Z55	X56	Y56	Z56	X57	Y57	Z57	X58	Y58	Z58	X59	Y59	Z59	X60	Y60	Z60	X61	Y61	Z61	X62	Y62	Z62	X63	Y63	Z63	X64	Y64	Z64	
712	11.85	0.0	1250.06673	7.654451098075493E-14	34.573430000000016	1326.12827	131.10787000000008	84.19646999999999	1341.17788	-93.55162999999993	2.3049000000000133	1387.1402	109.41473000000009	44.06416999999999	1399.88492	-79.99341999999992	-59.384949999999996	1199.49461	33.353190000000076	-38.369730000000004	1205.86697	-61.28309999999992	-56.40214	1270.94637	-11.117729999999915	-24.81152	1360.56612	2.1693100000000864	20.066150000000004	1470.25202	14.64286000000009	62.7745	1570.17601	24.269190000000087	306.55107	1662.10065	62.367750000000065	172.86715	1734.50148	42.30161000000008	115.38035	1664.26996	33.759940000000086	232.11651	1562.99016	51.25002000000006	214.89759	1782.09079	48.40280000000008	493.24759	1823.85007	44.74208000000005	395.49291	1807.85138	124.19318000000007	387.90032	1794.29317	-19.659399999999938	378.81632	1856.25418	47.724890000000066	198.08541000000002	1752.5339	226.9643900000001	254.62313999999998	1750.229	-125.14224999999992	340.0398400000001	1486.2507	233.74350000000007	333.93865	1482.04766	171.24016000000006	423.96515	1514.04503	-136.39556999999996	394.00151	1487.33536	-87.85717999999996	501.9248400000001	1292.50392	251.23358000000002	535.27803	1322.06081	224.38833000000002	318.07555	1472.15017	217.88039000000006	622.05056	1357.71889	-133.95509	628.96524	1370.87036	-84.06088999999999	403.62784	1497.23285	-138.97162999999998	685.77413	1316.77311	256.92803	612.96656	1282.0641	269.67275	548.83624	1289.65669	243.91215000000003	777.69878	1332.90737	-45.01325000000001	721.43222	1328.70433	-104.12703	653.5056	1342.39812	-109.41473	-11.795639999999983	1207.08721	142.22560000000007	218.96505	906.77291	114.02452000000002	236.04839	919.38205	43.38626000000003	258.14827	939.17703	88.26393000000003	50.16536999999999	1255.35443	-144.39490999999992	381.66354	1070.42048	-136.9379	377.86724	1054.82854	-64.80822999999997	396.57757	1098.75713	-89.61974999999997	275.77394	881.96139	82.29832000000003	184.93395	520.90633	109.41473	189.67932	520.09284	50.57211000000001	395.35733	1013.88275	-100.60189999999999	107.92332999999999	777.29203	-128.66738999999995	110.77054999999999	774.17365	-69.68918999999997	136.53115	445.25153	71.58734000000001	295.43334	416.7793	74.43455999999999	276.99418	420.98234	148.46237	307.0934	415.01673	115.78708999999999	172.4604	440.77732	80.80692000000002	379.76539	402.00085	134.76857999999996	20.74405999999999	755.5989	-90.16207999999996	119.31222999999999	630.72781	-62.77449999999998	111.71962999999998	630.72781	-138.83603999999997	128.53181	613.37331	-101.14422999999996	44.87766999999999	726.99108	-92.60255999999995	174.35855	552.63254	-105.75402	
713	11.867	0.0	1250.06673	7.654451098075493E-14	35.79367000000001	1325.72152	130.9722800000001	83.38297999999999	1341.58463	-94.09395999999992	3.1183900000000135	1386.73346	109.82148000000008	43.250679999999996	1400.15608	-79.85783999999991	-58.978199999999994	1199.35903	33.75994000000008	-38.912060000000004	1206.13813	-61.14751999999992	-56.53773	1270.94637	-10.439819999999914	-24.81152	1360.43054	2.7116400000000866	20.066150000000004	1470.25202	14.778450000000088	62.63892	1570.17601	24.13361000000009	306.41549	1662.5074	60.876350000000066	172.4604	1734.63706	41.35253000000009	115.10918	1664.40555	33.08203000000009	231.98093	1563.26132	50.300950000000064	214.62642	1782.36195	47.046980000000076	492.97642	1823.98565	41.35253000000006	395.62849	1808.12255	121.61712000000007	386.95124	1794.42876	-22.235459999999936	378.54515	1856.52535	45.284410000000065	198.76332000000002	1753.21181	225.74415000000008	253.13172999999998	1749.68667	-126.90481999999992	339.9042600000001	1486.2507	233.60791000000006	333.39632	1481.77649	171.10458000000006	422.74491	1513.77386	-137.61580999999998	393.3236	1487.60652	-88.26392999999996	501.51809000000003	1292.23275	250.82684000000003	534.87128	1321.78964	223.98159000000004	317.6688	1472.01458	217.74481000000006	621.64381	1358.3968	-134.49742	628.42292	1371.41268	-84.60320999999999	402.67876	1497.23285	-139.78511999999998	685.36739	1316.63753	256.3857	612.69539	1281.92851	269.266	548.42949	1289.38553	243.36982000000003	777.15645	1333.58529	-45.69116000000002	720.88989	1329.38224	-104.66936	652.96327	1343.07603	-109.95706	-12.880299999999982	1206.4093	142.36118000000008	202.42404	895.11286	113.48220000000003	220.04971	906.9085	42.84394000000003	243.23424	925.48324	87.58602000000003	49.62303999999999	1257.79491	-144.39490999999992	389.79846	1089.26639	-136.25998	386.40891	1072.99654	-64.40148999999997	403.08551	1118.00979	-88.80625999999997	259.91084	869.21668	82.02716000000002	167.44386	508.43278	108.33008000000001	172.4604	507.75487	49.487460000000006	404.57691	1032.72866	-100.05956999999998	122.29502999999998	790.17233	-130.42995999999997	125.00666999999999	786.91836	-71.45174999999998	117.41408000000001	433.99822	69.96035000000002	275.63836	401.86527	73.07874	257.06361	406.06831	147.10655	287.16283	399.56037	114.43127	153.34333	428.57494	79.31551000000002	359.42808	384.78193	133.41275999999996	35.92924999999999	764.95406	-92.19580999999995	139.37837	643.87927	-65.21497999999997	131.78577999999996	643.87927	-141.27652	149.27586	627.06709	-103.58469999999997	61.147519999999986	737.29532	-94.77186999999998	197.4075	568.36006	-108.46566	
714	11.883	0.0	1250.06673	7.654451098075493E-14	36.74274000000001	1325.45036	130.8367000000001	82.29831999999999	1341.85579	-94.63628999999993	3.9318800000000134	1386.59788	110.09264000000009	42.30160999999999	1400.42725	-79.85783999999991	-58.571459999999995	1199.22345	34.16668000000008	-39.45438000000001	1206.13813	-60.876349999999924	-56.67331	1270.94637	-9.897489999999914	-24.9471	1360.43054	3.118390000000087	19.794980000000002	1470.25202	14.91403000000009	62.23217	1570.31159	23.99803000000009	306.14432	1663.04973	59.65611000000006	172.05365	1734.90823	40.26788000000008	114.70244	1664.54113	32.53970000000009	231.84535	1563.66807	49.48746000000006	214.0841	1782.7687	45.82674000000008	492.29851	1823.98565	38.23415000000006	395.76408	1808.25813	119.17664000000008	385.86658	1794.69992	-24.540359999999936	378.13841	1856.79651	42.979520000000065	198.89890000000003	1754.0253	224.5239200000001	251.50474999999997	1749.27993	-128.39621999999991	339.63310000000007	1486.79303	233.47233000000006	332.85399	1481.64091	171.10458000000006	421.25351	1513.36712	-139.10720999999998	392.64569	1487.87769	-89.07741999999996	501.2469300000001	1292.50392	250.69126000000003	534.60012	1321.92523	223.71042000000003	317.39764	1472.28575	217.74481000000006	621.10148	1359.07472	-135.03975	627.74501	1372.22618	-85.14553999999998	401.72969	1496.96168	-141.00535999999997	685.09622	1316.50194	255.84337	612.28865	1281.92851	268.85925	548.02275	1289.52111	243.09866000000002	776.88529	1335.21227	-46.36907000000001	720.48314	1330.73806	-105.34727	652.42094	1344.0251	-110.49939	-13.693789999999982	1206.27372	142.49676000000008	188.3235	886.02886	113.75336000000003	206.4915	897.01101	43.11510000000003	230.35394	914.77226	87.85718000000003	49.08070999999999	1259.69305	-144.25932999999992	396.57757	1107.16322	-135.03975	393.73034	1090.48663	-63.181249999999984	408.37321	1136.31337	-87.45043999999999	245.53914	859.31919	82.70507000000003	148.73354	499.61994	107.24542000000001	154.42798	498.94203	48.402800000000006	412.71183	1051.03224	-98.83932999999999	137.75138999999996	800.74773	-132.05693999999997	139.9207	797.35818	-73.07873999999997	96.67002000000001	426.81237	68.33337000000002	253.80964	389.66288	72.12966	234.96374000000003	394.13709	146.02189	265.06296	386.81566	113.4822	132.3281	420.16885	77.68853000000001	336.78587	369.73232	132.73485	52.47025999999999	770.64851	-94.50070999999996	161.885	654.997	-67.92661999999997	154.69914999999997	655.26817	-143.98816	172.86715	639.1339	-106.29634999999998	79.04434999999998	744.34559	-97.07676999999997	224.11717	582.86734	-111.44846999999999	
715	11.9	0.0	1250.06673	7.654451098075493E-14	37.55623000000001	1325.31478	130.7011200000001	81.62040999999999	1342.26254	-94.90744999999993	4.474210000000014	1386.32671	110.36381000000009	41.48810999999999	1400.56283	-79.85783999999991	-58.30028999999999	1199.08787	34.437850000000076	-39.725550000000005	1206.13813	-60.74076999999992	-56.67331	1270.81078	-9.490749999999915	-25.08268	1360.43054	3.3895500000000864	19.659400000000005	1470.25202	15.049610000000088	62.09659	1570.31159	23.862450000000088	305.87316	1663.32089	58.84262000000006	171.78249	1735.04381	39.725550000000084	114.43127	1664.67671	32.132950000000086	231.70977	1563.80365	49.216290000000065	213.81293	1782.90428	45.148830000000075	492.02735	1823.85007	35.92925000000006	396.03524	1808.25813	117.54966000000007	385.18867	1794.8355	-26.031759999999935	378.00282	1856.79651	41.48811000000006	199.17007000000004	1754.70321	223.8460100000001	250.55566999999996	1748.7376	-129.48087999999993	339.7686800000001	1487.19978	233.74350000000007	332.58283	1481.64091	171.37574000000006	420.16885	1512.82479	-140.19186999999997	392.23894	1487.87769	-89.48416999999996	501.1113500000001	1292.77508	250.82684000000003	534.46454	1322.19639	223.84601000000004	317.26205	1472.42133	218.15156000000005	620.83032	1359.48146	-135.17533	627.47384	1372.7685	-85.28111999999999	401.05178	1496.69052	-141.81884999999997	685.09622	1316.23078	255.97896	612.15307	1281.92851	268.99484	548.02275	1289.65669	243.23424000000003	776.7497	1336.43251	-46.64023000000001	720.48314	1331.68714	-105.61844	652.28536	1344.56743	-110.63497	-14.371699999999983	1206.13813	142.63234000000008	177.47694	879.6565	114.70244000000002	196.05168	889.96074	43.928590000000035	220.45645	906.9085	88.80626000000002	48.67395999999999	1261.32004	-144.12374999999992	402.00085	1122.75516	-133.1416	399.28921	1105.8074	-61.41867999999998	412.30509	1152.17647	-85.41670999999998	234.15024	851.45543	83.92530000000002	129.75205	493.78992	106.56751000000001	136.1244	493.11201	47.860470000000014	420.03327	1067.03093	-96.80559999999998	154.02123999999998	807.66242	-133.27717999999996	155.64822	804.40845	-74.29897999999997	75.79038000000001	423.15165	66.97754000000002	231.4386	380.57888	71.45175	212.45711000000003	385.45984	145.34398	242.42075	377.32491	112.93987	111.17730000000002	415.28789	76.60387000000001	313.33017	357.52993	132.46369	70.23150999999999	772.81782	-96.53443999999998	185.88302	663.26751	-70.36709999999998	179.23949999999996	663.80984	-146.42864	198.08541	648.35348	-108.87240999999999	98.29699999999998	748.00631	-99.24607999999998	252.45382	595.34089	-114.02451999999998	
